<svg xmlns="http://www.w3.org/2000/svg" viewBox="0 0 64 64" width="64" height="64">
  <rect x="2" y="2" width="60" height="60" rx="14" fill="#ffffff"/>
  <g transform="rotate(0 32 32)"><circle cx="32" cy="10.5" r="4.7" fill="#F5A623"/><path d="M28.5 18.96 A13.5 13.5 0 0 1 43.05 39.74" fill="none" stroke="#F5A623" stroke-width="5" stroke-linecap="round"/></g>
  <g transform="rotate(72 32 32)"><circle cx="32" cy="10.5" r="4.7" fill="#159A3C"/><path d="M28.5 18.96 A13.5 13.5 0 0 1 43.05 39.74" fill="none" stroke="#159A3C" stroke-width="5" stroke-linecap="round"/></g>
  <g transform="rotate(144 32 32)"><circle cx="32" cy="10.5" r="4.7" fill="#E11D2A"/><path d="M28.5 18.96 A13.5 13.5 0 0 1 43.05 39.74" fill="none" stroke="#E11D2A" stroke-width="5" stroke-linecap="round"/></g>
  <g transform="rotate(216 32 32)"><circle cx="32" cy="10.5" r="4.7" fill="#111111"/><path d="M28.5 18.96 A13.5 13.5 0 0 1 43.05 39.74" fill="none" stroke="#111111" stroke-width="5" stroke-linecap="round"/></g>
  <g transform="rotate(288 32 32)"><circle cx="32" cy="10.5" r="4.7" fill="#1E63C8"/><path d="M28.5 18.96 A13.5 13.5 0 0 1 43.05 39.74" fill="none" stroke="#1E63C8" stroke-width="5" stroke-linecap="round"/></g>
</svg>
